<svg version="1.1" xmlns="http://www.w3.org/2000/svg" xmlns:xlink="http://www.w3.org/1999/xlink" width="1060" height="702"><defs><clipPath id="HtMKnhbDuSuz"><path fill="none" stroke="none" d=" M 0 0 L 1060 0 L 1060 702 L 0 702 L 0 0 Z"/></clipPath></defs><g transform="scale(1,1)" clip-path="url(#HtMKnhbDuSuz)"><g><rect fill="rgb(255,255,255)" stroke="none" x="0" y="0" width="1060" height="702" fill-opacity="1"/><path fill="none" stroke="rgb(192,192,192)" paint-order="fill stroke markers" d=" M -15.5 0.5 L -15.5 702.5 M -15.5 0.5 L -15.5 702.5 M 82.5 0.5 L 82.5 702.5 M 180.5 0.5 L 180.5 702.5 M 278.5 0.5 L 278.5 702.5 M 376.5 0.5 L 376.5 702.5 M 473.5 0.5 L 473.5 702.5 M 571.5 0.5 L 571.5 702.5 M 669.5 0.5 L 669.5 702.5 M 767.5 0.5 L 767.5 702.5 M 865.5 0.5 L 865.5 702.5 M 962.5 0.5 L 962.5 702.5" stroke-opacity="1" stroke-linecap="round" stroke-linejoin="round" stroke-miterlimit="10"/><path fill="none" stroke="rgb(192,192,192)" paint-order="fill stroke markers" d=" M 4.5 0.5 L 4.5 702.5 M 23.5 0.5 L 23.5 702.5 M 43.5 0.5 L 43.5 702.5 M 63.5 0.5 L 63.5 702.5 M 102.5 0.5 L 102.5 702.5 M 121.5 0.5 L 121.5 702.5 M 141.5 0.5 L 141.5 702.5 M 160.5 0.5 L 160.5 702.5 M 199.5 0.5 L 199.5 702.5 M 219.5 0.5 L 219.5 702.5 M 239.5 0.5 L 239.5 702.5 M 258.5 0.5 L 258.5 702.5 M 297.5 0.5 L 297.5 702.5 M 317.5 0.5 L 317.5 702.5 M 336.5 0.5 L 336.5 702.5 M 356.5 0.5 L 356.5 702.5 M 395.5 0.5 L 395.5 702.5 M 415.5 0.5 L 415.5 702.5 M 434.5 0.5 L 434.5 702.5 M 454.5 0.5 L 454.5 702.5 M 493.5 0.5 L 493.5 702.5 M 512.5 0.5 L 512.5 702.5 M 532.5 0.5 L 532.5 702.5 M 552.5 0.5 L 552.5 702.5 M 591.5 0.5 L 591.5 702.5 M 610.5 0.5 L 610.5 702.5 M 630.5 0.5 L 630.5 702.5 M 649.5 0.5 L 649.5 702.5 M 689.5 0.5 L 689.5 702.5 M 708.5 0.5 L 708.5 702.5 M 728.5 0.5 L 728.5 702.5 M 747.5 0.5 L 747.5 702.5 M 786.5 0.5 L 786.5 702.5 M 806.5 0.5 L 806.5 702.5 M 825.5 0.5 L 825.5 702.5 M 845.5 0.5 L 845.5 702.5 M 884.5 0.5 L 884.5 702.5 M 904.5 0.5 L 904.5 702.5 M 923.5 0.5 L 923.5 702.5 M 943.5 0.5 L 943.5 702.5 M 982.5 0.5 L 982.5 702.5 M 1002.5 0.5 L 1002.5 702.5 M 1021.5 0.5 L 1021.5 702.5 M 1041.5 0.5 L 1041.5 702.5" stroke-opacity="0.23529411764705882" stroke-linecap="round" stroke-linejoin="round" stroke-miterlimit="10"/><path fill="none" stroke="rgb(192,192,192)" paint-order="fill stroke markers" d=" M 0.5 75.5 L 1060.5 75.5 M 0.5 75.5 L 1060.5 75.5 M 0.5 159.5 L 1060.5 159.5 M 0.5 244.5 L 1060.5 244.5 M 0.5 328.5 L 1060.5 328.5 M 0.5 413.5 L 1060.5 413.5 M 0.5 582.5 L 1060.5 582.5 M 0.5 667.5 L 1060.5 667.5" stroke-opacity="1" stroke-linecap="round" stroke-linejoin="round" stroke-miterlimit="10"/><path fill="none" stroke="rgb(192,192,192)" paint-order="fill stroke markers" d=" M 0.5 7.5 L 1060.5 7.5 M 0.5 24.5 L 1060.5 24.5 M 0.5 41.5 L 1060.5 41.5 M 0.5 58.5 L 1060.5 58.5 M 0.5 92.5 L 1060.5 92.5 M 0.5 109.5 L 1060.5 109.5 M 0.5 126.5 L 1060.5 126.5 M 0.5 142.5 L 1060.5 142.5 M 0.5 176.5 L 1060.5 176.5 M 0.5 193.5 L 1060.5 193.5 M 0.5 210.5 L 1060.5 210.5 M 0.5 227.5 L 1060.5 227.5 M 0.5 261.5 L 1060.5 261.5 M 0.5 278.5 L 1060.5 278.5 M 0.5 295.5 L 1060.5 295.5 M 0.5 312.5 L 1060.5 312.5 M 0.5 345.5 L 1060.5 345.5 M 0.5 362.5 L 1060.5 362.5 M 0.5 379.5 L 1060.5 379.5 M 0.5 396.5 L 1060.5 396.5 M 0.5 430.5 L 1060.5 430.5 M 0.5 447.5 L 1060.5 447.5 M 0.5 464.5 L 1060.5 464.5 M 0.5 481.5 L 1060.5 481.5 M 0.5 514.5 L 1060.5 514.5 M 0.5 531.5 L 1060.5 531.5 M 0.5 548.5 L 1060.5 548.5 M 0.5 565.5 L 1060.5 565.5 M 0.5 599.5 L 1060.5 599.5 M 0.5 616.5 L 1060.5 616.5 M 0.5 633.5 L 1060.5 633.5 M 0.5 650.5 L 1060.5 650.5 M 0.5 683.5 L 1060.5 683.5 M 0.5 700.5 L 1060.5 700.5" stroke-opacity="0.23529411764705882" stroke-linecap="round" stroke-linejoin="round" stroke-miterlimit="10"/><path fill="none" stroke="rgb(0,0,0)" paint-order="fill stroke markers" d=" M 0 498 L 1057 498" stroke-opacity="1" stroke-miterlimit="10" stroke-width="2"/><path fill="none" stroke="rgb(0,0,0)" paint-order="fill stroke markers" d=" M 1058 498 L 1053 493" stroke-opacity="1" stroke-miterlimit="10" stroke-width="2"/><path fill="none" stroke="rgb(0,0,0)" paint-order="fill stroke markers" d=" M 1058 498 L 1053 503" stroke-opacity="1" stroke-miterlimit="10" stroke-width="2"/><text fill="rgb(0,0,0)" stroke="none" font-family="geogebra-sans-serif, sans-serif" font-size="12px" font-style="normal" font-weight="normal" text-decoration="normal" x="74" y="513" text-anchor="start" dominant-baseline="alphabetic" fill-opacity="1">2.5</text><text fill="none" stroke="rgb(255,255,255)" font-family="geogebra-sans-serif, sans-serif" font-size="12px" font-style="normal" font-weight="normal" text-decoration="normal" x="74" y="513" text-anchor="start" dominant-baseline="alphabetic" stroke-opacity="1" stroke-linejoin="bevel" stroke-miterlimit="10" stroke-width="3">2.5</text><text fill="rgb(0,0,0)" stroke="none" font-family="geogebra-sans-serif, sans-serif" font-size="12px" font-style="normal" font-weight="normal" text-decoration="normal" x="74" y="513" text-anchor="start" dominant-baseline="alphabetic" fill-opacity="1">2.5</text><text fill="rgb(0,0,0)" stroke="none" font-family="geogebra-sans-serif, sans-serif" font-size="12px" font-style="normal" font-weight="normal" text-decoration="normal" x="178" y="513" text-anchor="start" dominant-baseline="alphabetic" fill-opacity="1">3</text><text fill="none" stroke="rgb(255,255,255)" font-family="geogebra-sans-serif, sans-serif" font-size="12px" font-style="normal" font-weight="normal" text-decoration="normal" x="178" y="513" text-anchor="start" dominant-baseline="alphabetic" stroke-opacity="1" stroke-linejoin="bevel" stroke-miterlimit="10" stroke-width="3">3</text><text fill="rgb(0,0,0)" stroke="none" font-family="geogebra-sans-serif, sans-serif" font-size="12px" font-style="normal" font-weight="normal" text-decoration="normal" x="178" y="513" text-anchor="start" dominant-baseline="alphabetic" fill-opacity="1">3</text><text fill="rgb(0,0,0)" stroke="none" font-family="geogebra-sans-serif, sans-serif" font-size="12px" font-style="normal" font-weight="normal" text-decoration="normal" x="270" y="513" text-anchor="start" dominant-baseline="alphabetic" fill-opacity="1">3.5</text><text fill="none" stroke="rgb(255,255,255)" font-family="geogebra-sans-serif, sans-serif" font-size="12px" font-style="normal" font-weight="normal" text-decoration="normal" x="270" y="513" text-anchor="start" dominant-baseline="alphabetic" stroke-opacity="1" stroke-linejoin="bevel" stroke-miterlimit="10" stroke-width="3">3.5</text><text fill="rgb(0,0,0)" stroke="none" font-family="geogebra-sans-serif, sans-serif" font-size="12px" font-style="normal" font-weight="normal" text-decoration="normal" x="270" y="513" text-anchor="start" dominant-baseline="alphabetic" fill-opacity="1">3.5</text><text fill="rgb(0,0,0)" stroke="none" font-family="geogebra-sans-serif, sans-serif" font-size="12px" font-style="normal" font-weight="normal" text-decoration="normal" x="374" y="513" text-anchor="start" dominant-baseline="alphabetic" fill-opacity="1">4</text><text fill="none" stroke="rgb(255,255,255)" font-family="geogebra-sans-serif, sans-serif" font-size="12px" font-style="normal" font-weight="normal" text-decoration="normal" x="374" y="513" text-anchor="start" dominant-baseline="alphabetic" stroke-opacity="1" stroke-linejoin="bevel" stroke-miterlimit="10" stroke-width="3">4</text><text fill="rgb(0,0,0)" stroke="none" font-family="geogebra-sans-serif, sans-serif" font-size="12px" font-style="normal" font-weight="normal" text-decoration="normal" x="374" y="513" text-anchor="start" dominant-baseline="alphabetic" fill-opacity="1">4</text><text fill="rgb(0,0,0)" stroke="none" font-family="geogebra-sans-serif, sans-serif" font-size="12px" font-style="normal" font-weight="normal" text-decoration="normal" x="465" y="513" text-anchor="start" dominant-baseline="alphabetic" fill-opacity="1">4.5</text><text fill="none" stroke="rgb(255,255,255)" font-family="geogebra-sans-serif, sans-serif" font-size="12px" font-style="normal" font-weight="normal" text-decoration="normal" x="465" y="513" text-anchor="start" dominant-baseline="alphabetic" stroke-opacity="1" stroke-linejoin="bevel" stroke-miterlimit="10" stroke-width="3">4.5</text><text fill="rgb(0,0,0)" stroke="none" font-family="geogebra-sans-serif, sans-serif" font-size="12px" font-style="normal" font-weight="normal" text-decoration="normal" x="465" y="513" text-anchor="start" dominant-baseline="alphabetic" fill-opacity="1">4.5</text><text fill="rgb(0,0,0)" stroke="none" font-family="geogebra-sans-serif, sans-serif" font-size="12px" font-style="normal" font-weight="normal" text-decoration="normal" x="569" y="513" text-anchor="start" dominant-baseline="alphabetic" fill-opacity="1">5</text><text fill="none" stroke="rgb(255,255,255)" font-family="geogebra-sans-serif, sans-serif" font-size="12px" font-style="normal" font-weight="normal" text-decoration="normal" x="569" y="513" text-anchor="start" dominant-baseline="alphabetic" stroke-opacity="1" stroke-linejoin="bevel" stroke-miterlimit="10" stroke-width="3">5</text><text fill="rgb(0,0,0)" stroke="none" font-family="geogebra-sans-serif, sans-serif" font-size="12px" font-style="normal" font-weight="normal" text-decoration="normal" x="569" y="513" text-anchor="start" dominant-baseline="alphabetic" fill-opacity="1">5</text><text fill="rgb(0,0,0)" stroke="none" font-family="geogebra-sans-serif, sans-serif" font-size="12px" font-style="normal" font-weight="normal" text-decoration="normal" x="661" y="513" text-anchor="start" dominant-baseline="alphabetic" fill-opacity="1">5.5</text><text fill="none" stroke="rgb(255,255,255)" font-family="geogebra-sans-serif, sans-serif" font-size="12px" font-style="normal" font-weight="normal" text-decoration="normal" x="661" y="513" text-anchor="start" dominant-baseline="alphabetic" stroke-opacity="1" stroke-linejoin="bevel" stroke-miterlimit="10" stroke-width="3">5.5</text><text fill="rgb(0,0,0)" stroke="none" font-family="geogebra-sans-serif, sans-serif" font-size="12px" font-style="normal" font-weight="normal" text-decoration="normal" x="661" y="513" text-anchor="start" dominant-baseline="alphabetic" fill-opacity="1">5.5</text><text fill="rgb(0,0,0)" stroke="none" font-family="geogebra-sans-serif, sans-serif" font-size="12px" font-style="normal" font-weight="normal" text-decoration="normal" x="765" y="513" text-anchor="start" dominant-baseline="alphabetic" fill-opacity="1">6</text><text fill="none" stroke="rgb(255,255,255)" font-family="geogebra-sans-serif, sans-serif" font-size="12px" font-style="normal" font-weight="normal" text-decoration="normal" x="765" y="513" text-anchor="start" dominant-baseline="alphabetic" stroke-opacity="1" stroke-linejoin="bevel" stroke-miterlimit="10" stroke-width="3">6</text><text fill="rgb(0,0,0)" stroke="none" font-family="geogebra-sans-serif, sans-serif" font-size="12px" font-style="normal" font-weight="normal" text-decoration="normal" x="765" y="513" text-anchor="start" dominant-baseline="alphabetic" fill-opacity="1">6</text><text fill="rgb(0,0,0)" stroke="none" font-family="geogebra-sans-serif, sans-serif" font-size="12px" font-style="normal" font-weight="normal" text-decoration="normal" x="857" y="513" text-anchor="start" dominant-baseline="alphabetic" fill-opacity="1">6.5</text><text fill="none" stroke="rgb(255,255,255)" font-family="geogebra-sans-serif, sans-serif" font-size="12px" font-style="normal" font-weight="normal" text-decoration="normal" x="857" y="513" text-anchor="start" dominant-baseline="alphabetic" stroke-opacity="1" stroke-linejoin="bevel" stroke-miterlimit="10" stroke-width="3">6.5</text><text fill="rgb(0,0,0)" stroke="none" font-family="geogebra-sans-serif, sans-serif" font-size="12px" font-style="normal" font-weight="normal" text-decoration="normal" x="857" y="513" text-anchor="start" dominant-baseline="alphabetic" fill-opacity="1">6.5</text><text fill="rgb(0,0,0)" stroke="none" font-family="geogebra-sans-serif, sans-serif" font-size="12px" font-style="normal" font-weight="normal" text-decoration="normal" x="960" y="513" text-anchor="start" dominant-baseline="alphabetic" fill-opacity="1">7</text><text fill="none" stroke="rgb(255,255,255)" font-family="geogebra-sans-serif, sans-serif" font-size="12px" font-style="normal" font-weight="normal" text-decoration="normal" x="960" y="513" text-anchor="start" dominant-baseline="alphabetic" stroke-opacity="1" stroke-linejoin="bevel" stroke-miterlimit="10" stroke-width="3">7</text><text fill="rgb(0,0,0)" stroke="none" font-family="geogebra-sans-serif, sans-serif" font-size="12px" font-style="normal" font-weight="normal" text-decoration="normal" x="960" y="513" text-anchor="start" dominant-baseline="alphabetic" fill-opacity="1">7</text><text fill="rgb(0,0,0)" stroke="none" font-family="geogebra-sans-serif, sans-serif" font-size="12px" font-style="normal" font-weight="normal" text-decoration="normal" x="3" y="672" text-anchor="start" dominant-baseline="alphabetic" fill-opacity="1">–4</text><text fill="none" stroke="rgb(255,255,255)" font-family="geogebra-sans-serif, sans-serif" font-size="12px" font-style="normal" font-weight="normal" text-decoration="normal" x="3" y="672" text-anchor="start" dominant-baseline="alphabetic" stroke-opacity="1" stroke-linejoin="bevel" stroke-miterlimit="10" stroke-width="3">–4</text><text fill="rgb(0,0,0)" stroke="none" font-family="geogebra-sans-serif, sans-serif" font-size="12px" font-style="normal" font-weight="normal" text-decoration="normal" x="3" y="672" text-anchor="start" dominant-baseline="alphabetic" fill-opacity="1">–4</text><text fill="rgb(0,0,0)" stroke="none" font-family="geogebra-sans-serif, sans-serif" font-size="12px" font-style="normal" font-weight="normal" text-decoration="normal" x="3" y="587" text-anchor="start" dominant-baseline="alphabetic" fill-opacity="1">–2</text><text fill="none" stroke="rgb(255,255,255)" font-family="geogebra-sans-serif, sans-serif" font-size="12px" font-style="normal" font-weight="normal" text-decoration="normal" x="3" y="587" text-anchor="start" dominant-baseline="alphabetic" stroke-opacity="1" stroke-linejoin="bevel" stroke-miterlimit="10" stroke-width="3">–2</text><text fill="rgb(0,0,0)" stroke="none" font-family="geogebra-sans-serif, sans-serif" font-size="12px" font-style="normal" font-weight="normal" text-decoration="normal" x="3" y="587" text-anchor="start" dominant-baseline="alphabetic" fill-opacity="1">–2</text><text fill="rgb(0,0,0)" stroke="none" font-family="geogebra-sans-serif, sans-serif" font-size="12px" font-style="normal" font-weight="normal" text-decoration="normal" x="9" y="418" text-anchor="start" dominant-baseline="alphabetic" fill-opacity="1">2</text><text fill="none" stroke="rgb(255,255,255)" font-family="geogebra-sans-serif, sans-serif" font-size="12px" font-style="normal" font-weight="normal" text-decoration="normal" x="9" y="418" text-anchor="start" dominant-baseline="alphabetic" stroke-opacity="1" stroke-linejoin="bevel" stroke-miterlimit="10" stroke-width="3">2</text><text fill="rgb(0,0,0)" stroke="none" font-family="geogebra-sans-serif, sans-serif" font-size="12px" font-style="normal" font-weight="normal" text-decoration="normal" x="9" y="418" text-anchor="start" dominant-baseline="alphabetic" fill-opacity="1">2</text><text fill="rgb(0,0,0)" stroke="none" font-family="geogebra-sans-serif, sans-serif" font-size="12px" font-style="normal" font-weight="normal" text-decoration="normal" x="9" y="333" text-anchor="start" dominant-baseline="alphabetic" fill-opacity="1">4</text><text fill="none" stroke="rgb(255,255,255)" font-family="geogebra-sans-serif, sans-serif" font-size="12px" font-style="normal" font-weight="normal" text-decoration="normal" x="9" y="333" text-anchor="start" dominant-baseline="alphabetic" stroke-opacity="1" stroke-linejoin="bevel" stroke-miterlimit="10" stroke-width="3">4</text><text fill="rgb(0,0,0)" stroke="none" font-family="geogebra-sans-serif, sans-serif" font-size="12px" font-style="normal" font-weight="normal" text-decoration="normal" x="9" y="333" text-anchor="start" dominant-baseline="alphabetic" fill-opacity="1">4</text><text fill="rgb(0,0,0)" stroke="none" font-family="geogebra-sans-serif, sans-serif" font-size="12px" font-style="normal" font-weight="normal" text-decoration="normal" x="9" y="249" text-anchor="start" dominant-baseline="alphabetic" fill-opacity="1">6</text><text fill="none" stroke="rgb(255,255,255)" font-family="geogebra-sans-serif, sans-serif" font-size="12px" font-style="normal" font-weight="normal" text-decoration="normal" x="9" y="249" text-anchor="start" dominant-baseline="alphabetic" stroke-opacity="1" stroke-linejoin="bevel" stroke-miterlimit="10" stroke-width="3">6</text><text fill="rgb(0,0,0)" stroke="none" font-family="geogebra-sans-serif, sans-serif" font-size="12px" font-style="normal" font-weight="normal" text-decoration="normal" x="9" y="249" text-anchor="start" dominant-baseline="alphabetic" fill-opacity="1">6</text><text fill="rgb(0,0,0)" stroke="none" font-family="geogebra-sans-serif, sans-serif" font-size="12px" font-style="normal" font-weight="normal" text-decoration="normal" x="9" y="164" text-anchor="start" dominant-baseline="alphabetic" fill-opacity="1">8</text><text fill="none" stroke="rgb(255,255,255)" font-family="geogebra-sans-serif, sans-serif" font-size="12px" font-style="normal" font-weight="normal" text-decoration="normal" x="9" y="164" text-anchor="start" dominant-baseline="alphabetic" stroke-opacity="1" stroke-linejoin="bevel" stroke-miterlimit="10" stroke-width="3">8</text><text fill="rgb(0,0,0)" stroke="none" font-family="geogebra-sans-serif, sans-serif" font-size="12px" font-style="normal" font-weight="normal" text-decoration="normal" x="9" y="164" text-anchor="start" dominant-baseline="alphabetic" fill-opacity="1">8</text><text fill="rgb(0,0,0)" stroke="none" font-family="geogebra-sans-serif, sans-serif" font-size="12px" font-style="normal" font-weight="normal" text-decoration="normal" x="3" y="80" text-anchor="start" dominant-baseline="alphabetic" fill-opacity="1">10</text><text fill="none" stroke="rgb(255,255,255)" font-family="geogebra-sans-serif, sans-serif" font-size="12px" font-style="normal" font-weight="normal" text-decoration="normal" x="3" y="80" text-anchor="start" dominant-baseline="alphabetic" stroke-opacity="1" stroke-linejoin="bevel" stroke-miterlimit="10" stroke-width="3">10</text><text fill="rgb(0,0,0)" stroke="none" font-family="geogebra-sans-serif, sans-serif" font-size="12px" font-style="normal" font-weight="normal" text-decoration="normal" x="3" y="80" text-anchor="start" dominant-baseline="alphabetic" fill-opacity="1">10</text><path fill="none" stroke="rgb(0,0,0)" paint-order="fill stroke markers" d=" M 180.42209442457164 75.3447987933946 L 376.03779354442787 582.5064157499525" stroke-opacity="0.6980392156862745" stroke-linecap="round" stroke-linejoin="round" stroke-miterlimit="10" stroke-width="2.5"/><text fill="rgb(0,0,0)" stroke="none" font-family="geogebra-sans-serif, sans-serif" font-size="16px" font-style="normal" font-weight="normal" text-decoration="normal" x="263" y="334" text-anchor="start" dominant-baseline="alphabetic" fill-opacity="1">f</text><text fill="none" stroke="rgb(255,255,255)" font-family="geogebra-sans-serif, sans-serif" font-size="16px" font-style="normal" font-weight="normal" text-decoration="normal" x="263" y="334" text-anchor="start" dominant-baseline="alphabetic" stroke-opacity="1" stroke-linejoin="bevel" stroke-miterlimit="10" stroke-width="3">f</text><text fill="rgb(0,0,0)" stroke="none" font-family="geogebra-sans-serif, sans-serif" font-size="16px" font-style="normal" font-weight="normal" text-decoration="normal" x="263" y="334" text-anchor="start" dominant-baseline="alphabetic" fill-opacity="1">f</text><path fill="none" stroke="rgb(0,0,0)" paint-order="fill stroke markers" d=" M 571.6534926642842 413.45254343109985 L 962.8848909039966 328.9256072716736" stroke-opacity="0.6980392156862745" stroke-linecap="round" stroke-linejoin="round" stroke-miterlimit="10" stroke-width="2.5"/><text fill="rgb(0,0,0)" stroke="none" font-family="geogebra-sans-serif, sans-serif" font-size="16px" font-style="normal" font-weight="normal" text-decoration="normal" x="770" y="386" text-anchor="start" dominant-baseline="alphabetic" fill-opacity="1">g</text><text fill="none" stroke="rgb(255,255,255)" font-family="geogebra-sans-serif, sans-serif" font-size="16px" font-style="normal" font-weight="normal" text-decoration="normal" x="770" y="386" text-anchor="start" dominant-baseline="alphabetic" stroke-opacity="1" stroke-linejoin="bevel" stroke-miterlimit="10" stroke-width="3">g</text><text fill="rgb(0,0,0)" stroke="none" font-family="geogebra-sans-serif, sans-serif" font-size="16px" font-style="normal" font-weight="normal" text-decoration="normal" x="770" y="386" text-anchor="start" dominant-baseline="alphabetic" fill-opacity="1">g</text><path fill="rgb(21,101,192)" stroke="none" paint-order="stroke fill markers" d=" M 185.42209442457164 75.3447987933946 C 185.42209442457164 78.10622254254857 183.18351817372562 80.3447987933946 180.42209442457164 80.3447987933946 C 177.66067067541766 80.3447987933946 175.42209442457164 78.10622254254857 175.42209442457164 75.3447987933946 C 175.42209442457164 72.58337504424064 177.66067067541766 70.3447987933946 180.42209442457164 70.3447987933946 C 183.18351817372562 70.3447987933946 185.42209442457164 72.58337504424064 185.42209442457164 75.3447987933946 Z" fill-opacity="1"/><path fill="none" stroke="rgb(0,0,0)" paint-order="fill stroke markers" d=" M 185.42209442457164 75.3447987933946 C 185.42209442457164 78.10622254254857 183.18351817372562 80.3447987933946 180.42209442457164 80.3447987933946 C 177.66067067541766 80.3447987933946 175.42209442457164 78.10622254254857 175.42209442457164 75.3447987933946 C 175.42209442457164 72.58337504424064 177.66067067541766 70.3447987933946 180.42209442457164 70.3447987933946 C 183.18351817372562 70.3447987933946 185.42209442457164 72.58337504424064 185.42209442457164 75.3447987933946 Z" stroke-opacity="1" stroke-linecap="round" stroke-linejoin="round" stroke-miterlimit="10"/><text fill="rgb(21,101,192)" stroke="none" font-family="geogebra-sans-serif, sans-serif" font-size="16px" font-style="normal" font-weight="normal" text-decoration="normal" x="184" y="65" text-anchor="start" dominant-baseline="alphabetic" fill-opacity="1">A = (3, 10)</text><text fill="none" stroke="rgb(255,255,255)" font-family="geogebra-sans-serif, sans-serif" font-size="16px" font-style="normal" font-weight="normal" text-decoration="normal" x="184" y="65" text-anchor="start" dominant-baseline="alphabetic" stroke-opacity="1" stroke-linejoin="bevel" stroke-miterlimit="10" stroke-width="3">A = (3, 10)</text><text fill="rgb(21,101,192)" stroke="none" font-family="geogebra-sans-serif, sans-serif" font-size="16px" font-style="normal" font-weight="normal" text-decoration="normal" x="184" y="65" text-anchor="start" dominant-baseline="alphabetic" fill-opacity="1">A = (3, 10)</text><path fill="rgb(21,101,192)" stroke="none" paint-order="stroke fill markers" d=" M 381.03779354442787 582.5064157499525 C 381.03779354442787 585.2678394991065 378.7992172935818 587.5064157499525 376.03779354442787 587.5064157499525 C 373.2763697952739 587.5064157499525 371.03779354442787 585.2678394991065 371.03779354442787 582.5064157499525 C 371.03779354442787 579.7449920007984 373.2763697952739 577.5064157499525 376.03779354442787 577.5064157499525 C 378.7992172935818 577.5064157499525 381.03779354442787 579.7449920007984 381.03779354442787 582.5064157499525 Z" fill-opacity="1"/><path fill="none" stroke="rgb(0,0,0)" paint-order="fill stroke markers" d=" M 381.03779354442787 582.5064157499525 C 381.03779354442787 585.2678394991065 378.7992172935818 587.5064157499525 376.03779354442787 587.5064157499525 C 373.2763697952739 587.5064157499525 371.03779354442787 585.2678394991065 371.03779354442787 582.5064157499525 C 371.03779354442787 579.7449920007984 373.2763697952739 577.5064157499525 376.03779354442787 577.5064157499525 C 378.7992172935818 577.5064157499525 381.03779354442787 579.7449920007984 381.03779354442787 582.5064157499525 Z" stroke-opacity="1" stroke-linecap="round" stroke-linejoin="round" stroke-miterlimit="10"/><text fill="rgb(21,101,192)" stroke="none" font-family="geogebra-sans-serif, sans-serif" font-size="16px" font-style="normal" font-weight="normal" text-decoration="normal" x="380" y="573" text-anchor="start" dominant-baseline="alphabetic" fill-opacity="1">B = (4, -2)</text><text fill="none" stroke="rgb(255,255,255)" font-family="geogebra-sans-serif, sans-serif" font-size="16px" font-style="normal" font-weight="normal" text-decoration="normal" x="380" y="573" text-anchor="start" dominant-baseline="alphabetic" stroke-opacity="1" stroke-linejoin="bevel" stroke-miterlimit="10" stroke-width="3">B = (4, -2)</text><text fill="rgb(21,101,192)" stroke="none" font-family="geogebra-sans-serif, sans-serif" font-size="16px" font-style="normal" font-weight="normal" text-decoration="normal" x="380" y="573" text-anchor="start" dominant-baseline="alphabetic" fill-opacity="1">B = (4, -2)</text><path fill="rgb(21,101,192)" stroke="none" paint-order="stroke fill markers" d=" M 576.6534926642842 413.45254343109985 C 576.6534926642842 416.2139671802538 574.4149164134382 418.45254343109985 571.6534926642842 418.45254343109985 C 568.8920689151302 418.45254343109985 566.6534926642842 416.2139671802538 566.6534926642842 413.45254343109985 C 566.6534926642842 410.6911196819459 568.8920689151302 408.45254343109985 571.6534926642842 408.45254343109985 C 574.4149164134382 408.45254343109985 576.6534926642842 410.6911196819459 576.6534926642842 413.45254343109985 Z" fill-opacity="1"/><path fill="none" stroke="rgb(0,0,0)" paint-order="fill stroke markers" d=" M 576.6534926642842 413.45254343109985 C 576.6534926642842 416.2139671802538 574.4149164134382 418.45254343109985 571.6534926642842 418.45254343109985 C 568.8920689151302 418.45254343109985 566.6534926642842 416.2139671802538 566.6534926642842 413.45254343109985 C 566.6534926642842 410.6911196819459 568.8920689151302 408.45254343109985 571.6534926642842 408.45254343109985 C 574.4149164134382 408.45254343109985 576.6534926642842 410.6911196819459 576.6534926642842 413.45254343109985 Z" stroke-opacity="1" stroke-linecap="round" stroke-linejoin="round" stroke-miterlimit="10"/><text fill="rgb(21,101,192)" stroke="none" font-family="geogebra-sans-serif, sans-serif" font-size="16px" font-style="normal" font-weight="normal" text-decoration="normal" x="576" y="403" text-anchor="start" dominant-baseline="alphabetic" fill-opacity="1">C = (5, 2)</text><text fill="none" stroke="rgb(255,255,255)" font-family="geogebra-sans-serif, sans-serif" font-size="16px" font-style="normal" font-weight="normal" text-decoration="normal" x="576" y="403" text-anchor="start" dominant-baseline="alphabetic" stroke-opacity="1" stroke-linejoin="bevel" stroke-miterlimit="10" stroke-width="3">C = (5, 2)</text><text fill="rgb(21,101,192)" stroke="none" font-family="geogebra-sans-serif, sans-serif" font-size="16px" font-style="normal" font-weight="normal" text-decoration="normal" x="576" y="403" text-anchor="start" dominant-baseline="alphabetic" fill-opacity="1">C = (5, 2)</text><path fill="rgb(21,101,192)" stroke="none" paint-order="stroke fill markers" d=" M 967.8848909039966 328.9256072716736 C 967.8848909039966 331.68703102082753 965.6463146531506 333.9256072716736 962.8848909039966 333.9256072716736 C 960.1234671548426 333.9256072716736 957.8848909039966 331.68703102082753 957.8848909039966 328.9256072716736 C 957.8848909039966 326.16418352251964 960.1234671548426 323.9256072716736 962.8848909039966 323.9256072716736 C 965.6463146531506 323.9256072716736 967.8848909039966 326.16418352251964 967.8848909039966 328.9256072716736 Z" fill-opacity="1"/><path fill="none" stroke="rgb(0,0,0)" paint-order="fill stroke markers" d=" M 967.8848909039966 328.9256072716736 C 967.8848909039966 331.68703102082753 965.6463146531506 333.9256072716736 962.8848909039966 333.9256072716736 C 960.1234671548426 333.9256072716736 957.8848909039966 331.68703102082753 957.8848909039966 328.9256072716736 C 957.8848909039966 326.16418352251964 960.1234671548426 323.9256072716736 962.8848909039966 323.9256072716736 C 965.6463146531506 323.9256072716736 967.8848909039966 326.16418352251964 967.8848909039966 328.9256072716736 Z" stroke-opacity="1" stroke-linecap="round" stroke-linejoin="round" stroke-miterlimit="10"/><text fill="rgb(21,101,192)" stroke="none" font-family="geogebra-sans-serif, sans-serif" font-size="16px" font-style="normal" font-weight="normal" text-decoration="normal" x="967" y="319" text-anchor="start" dominant-baseline="alphabetic" fill-opacity="1">D = (7, 4)</text><text fill="none" stroke="rgb(255,255,255)" font-family="geogebra-sans-serif, sans-serif" font-size="16px" font-style="normal" font-weight="normal" text-decoration="normal" x="967" y="319" text-anchor="start" dominant-baseline="alphabetic" stroke-opacity="1" stroke-linejoin="bevel" stroke-miterlimit="10" stroke-width="3">D = (7, 4)</text><text fill="rgb(21,101,192)" stroke="none" font-family="geogebra-sans-serif, sans-serif" font-size="16px" font-style="normal" font-weight="normal" text-decoration="normal" x="967" y="319" text-anchor="start" dominant-baseline="alphabetic" fill-opacity="1">D = (7, 4)</text></g></g></svg>