<svg xmlns="http://www.w3.org/2000/svg" xmlns:xlink="http://www.w3.org/1999/xlink" xmlns:lucid="lucid" width="700" height="280"><g transform="translate(-160 -260)" lucid:page-tab-id="0_0"><path d="M0 0h1870.4v1323.2H0z" fill="#fff"/><path d="M420 426c0-3.3 2.7-6 6-6h148c3.3 0 6 2.7 6 6v88c0 3.3-2.7 6-6 6H426c-3.3 0-6-2.7-6-6z" stroke="#5e5e5e" stroke-width="3" fill="#fff"/><use xlink:href="#a" transform="matrix(1,0,0,1,425,425) translate(39.22839506172839 48.71527777777778)"/><use xlink:href="#b" transform="matrix(1,0,0,1,425,425) translate(98.42592592592592 48.71527777777778)"/><path d="M180 286c0-3.3 2.7-6 6-6h88c3.3 0 6 2.7 6 6v51.33c0 3.32-2.7 6-6 6h-88c-3.3 0-6-2.68-6-6z" stroke="#5e5e5e" stroke-width="3" fill="#fff"/><use xlink:href="#c" transform="matrix(1,0,0,1,185,285) translate(22.808641975308642 31.27777777777778)"/><path d="M740 286c0-3.3 2.7-6 6-6h88c3.3 0 6 2.7 6 6v51.33c0 3.32-2.7 6-6 6h-88c-3.3 0-6-2.68-6-6z" stroke="#5e5e5e" stroke-width="3" fill="#fff"/><use xlink:href="#d" transform="matrix(1,0,0,1,745,285) translate(25.308641975308642 31.27777777777778)"/><path d="M230.02 345.84l.1 4.12.3 4.9.48 4.67.67 4.5.82 4.33.98 4.2 1.13 4.05 1.3 3.96 1.43 3.86 1.58 3.77 1.75 3.68 1.9 3.64 2.07 3.57 2.24 3.53 2.43 3.5 2.62 3.46 2.85 3.43 3.1 3.43 3.33 3.4 3.62 3.4 3.94 3.4 4.28 3.4 4.66 3.38 5.08 3.38 5.56 3.36 6.08 3.34 6.66 3.3 7.3 3.26 8.03 3.17 8.8 3.06 9.66 2.92 10.55 2.7 11.5 2.45 12.4 2.1 13.3 1.67 14.02 1.17 3.5.16" stroke="#5e5e5e" stroke-width="2" fill="none"/><path d="M231.02 345.84l-2 .04-.02-1.05h2z" fill="#5e5e5e"/><path d="M415.27 469.9l-14.4 4.22.27-9.27z" stroke="#5e5e5e" stroke-width="2" fill="#5e5e5e"/><path d="M789.98 345.84l-.1 4.2-.3 4.92-.5 4.7-.65 4.47-.82 4.3-.96 4.12-1.1 4-1.27 3.85-1.4 3.76-1.53 3.65-1.68 3.6-1.83 3.5-2 3.44-2.15 3.4-2.33 3.34-2.52 3.32-2.72 3.3-2.94 3.27-3.2 3.27-3.47 3.26-3.8 3.26-4.1 3.26-4.5 3.26-4.94 3.28-5.42 3.28-6 3.3-6.62 3.28-7.36 3.27-8.2 3.24-9.2 3.2-10.3 3.1-11.58 2.97-13.05 2.78-14.7 2.48-16.45 2.07-18.28 1.53-12 .5" stroke="#5e5e5e" stroke-width="2" fill="none"/><path d="M790.98 345.88l-2-.04.02-1h2z" fill="#5e5e5e"/><path d="M584.74 469.92l14.15-4.97.2 9.27z" stroke="#5e5e5e" stroke-width="2" fill="#5e5e5e"/><defs><path fill="#333" d="M190 0L58-211 59 0H30v-248h39L202-35l-2-213h31V0h-41" id="e"/><path fill="#333" d="M100-194c62-1 85 37 85 99 1 63-27 99-86 99S16-35 15-95c0-66 28-99 85-99zM99-20c44 1 53-31 53-75 0-43-8-75-51-75s-53 32-53 75 10 74 51 75" id="f"/><path fill="#333" d="M85-194c31 0 48 13 60 33l-1-100h32l1 261h-30c-2-10 0-23-3-31C134-8 116 4 85 4 32 4 16-35 15-94c0-66 23-100 70-100zm9 24c-40 0-46 34-46 75 0 40 6 74 45 74 42 0 51-32 51-76 0-42-9-74-50-73" id="g"/><path fill="#333" d="M100-194c63 0 86 42 84 106H49c0 40 14 67 53 68 26 1 43-12 49-29l28 8c-11 28-37 45-77 45C44 4 14-33 15-96c1-61 26-98 85-98zm52 81c6-60-76-77-97-28-3 7-6 17-6 28h103" id="h"/><g id="a"><use transform="matrix(0.06172839506172839,0,0,0.06172839506172839,0,0)" xlink:href="#e"/><use transform="matrix(0.06172839506172839,0,0,0.06172839506172839,15.987654320987653,0)" xlink:href="#f"/><use transform="matrix(0.06172839506172839,0,0,0.06172839506172839,28.333333333333332,0)" xlink:href="#g"/><use transform="matrix(0.06172839506172839,0,0,0.06172839506172839,40.67901234567901,0)" xlink:href="#h"/></g><path fill="#333" d="M27 0v-27h64v-190l-56 39v-29l58-41h29v221h61V0H27" id="i"/><use transform="matrix(0.06172839506172839,0,0,0.06172839506172839,0,0)" xlink:href="#i" id="b"/><path fill="#333" d="M101-234c-31-9-42 10-38 44h38v23H63V0H32v-167H5v-23h27c-7-52 17-82 69-68v24" id="j"/><path fill="#333" d="M114-163C36-179 61-72 57 0H25l-1-190h30c1 12-1 29 2 39 6-27 23-49 58-41v29" id="k"/><path fill="#333" d="M117-194c89-4 53 116 60 194h-32v-121c0-31-8-49-39-48C34-167 62-67 57 0H25l-1-190h30c1 10-1 24 2 32 11-22 29-35 61-36" id="l"/><path fill="#333" d="M59-47c-2 24 18 29 38 22v24C64 9 27 4 27-40v-127H5v-23h24l9-43h21v43h35v23H59v120" id="m"/><g id="c"><use transform="matrix(0.06172839506172839,0,0,0.06172839506172839,0,0)" xlink:href="#j"/><use transform="matrix(0.06172839506172839,0,0,0.06172839506172839,6.172839506172839,0)" xlink:href="#k"/><use transform="matrix(0.06172839506172839,0,0,0.06172839506172839,13.518518518518519,0)" xlink:href="#f"/><use transform="matrix(0.06172839506172839,0,0,0.06172839506172839,25.864197530864196,0)" xlink:href="#l"/><use transform="matrix(0.06172839506172839,0,0,0.06172839506172839,38.20987654320987,0)" xlink:href="#m"/></g><path fill="#333" d="M141-36C126-15 110 5 73 4 37 3 15-17 15-53c-1-64 63-63 125-63 3-35-9-54-41-54-24 1-41 7-42 31l-33-3c5-37 33-52 76-52 45 0 72 20 72 64v82c-1 20 7 32 28 27v20c-31 9-61-2-59-35zM48-53c0 20 12 33 32 33 41-3 63-29 60-74-43 2-92-5-92 41" id="n"/><g id="d"><use transform="matrix(0.06172839506172839,0,0,0.06172839506172839,0,0)" xlink:href="#k"/><use transform="matrix(0.06172839506172839,0,0,0.06172839506172839,7.345679012345679,0)" xlink:href="#h"/><use transform="matrix(0.06172839506172839,0,0,0.06172839506172839,19.691358024691358,0)" xlink:href="#n"/><use transform="matrix(0.06172839506172839,0,0,0.06172839506172839,32.03703703703704,0)" xlink:href="#k"/></g></defs></g></svg>