<svg xmlns="http://www.w3.org/2000/svg" xmlns:xlink="http://www.w3.org/1999/xlink" xmlns:lucid="lucid" width="960" height="280"><g transform="translate(-260 -260)" lucid:page-tab-id="0_0"><path d="M0 0h1870.4v1323.2H0z" fill="#fff"/><path d="M420 446c0-3.3 2.7-6 6-6h128c3.3 0 6 2.7 6 6v68c0 3.3-2.7 6-6 6H426c-3.3 0-6-2.7-6-6z" stroke="#5e5e5e" stroke-width="3" fill="#fff"/><use xlink:href="#a" transform="matrix(1,0,0,1,425,445) translate(29.228395061728392 39.65277777777778)"/><use xlink:href="#b" transform="matrix(1,0,0,1,425,445) translate(88.42592592592592 39.65277777777778)"/><path d="M280 286c0-3.3 2.7-6 6-6h88c3.3 0 6 2.7 6 6v51.33c0 3.32-2.7 6-6 6h-88c-3.3 0-6-2.68-6-6z" stroke="#5e5e5e" stroke-width="3" fill="#fff"/><use xlink:href="#c" transform="matrix(1,0,0,1,285,285) translate(22.808641975308642 31.27777777777778)"/><path d="M1100 286c0-3.3 2.7-6 6-6h88c3.3 0 6 2.7 6 6v51.33c0 3.32-2.7 6-6 6h-88c-3.3 0-6-2.68-6-6z" stroke="#5e5e5e" stroke-width="3" fill="#fff"/><use xlink:href="#d" transform="matrix(1,0,0,1,1105,285) translate(25.308641975308642 31.27777777777778)"/><path d="M330.02 345.84l.2 9.9.67 10.54 1.04 10 1.38 9.37 1.65 8.65 1.86 7.94 2.02 7.24 2.13 6.58 2.23 6 2.3 5.42 2.32 4.95 2.35 4.5 2.36 4.1 2.38 3.74 2.4 3.43 2.37 3.14 2.4 2.9 2.38 2.64 2.4 2.45 2.4 2.25 2.4 2.1 2.43 1.9 2.45 1.8L379 469l2.5 1.52 2.53 1.4 2.58 1.27 2.63 1.16 2.68 1.06 2.76.96 2.82.85 2.68.7" stroke="#5e5e5e" stroke-width="2" fill="none"/><path d="M331.02 345.84l-2 .04-.02-1.05h2z" fill="#5e5e5e"/><path d="M415.28 479.63l-14.7 3 1.05-9.2z" stroke="#5e5e5e" stroke-width="2" fill="#5e5e5e"/><path d="M620 446c0-3.3 2.7-6 6-6h128c3.3 0 6 2.7 6 6v68c0 3.3-2.7 6-6 6H626c-3.3 0-6-2.7-6-6z" stroke="#5e5e5e" stroke-width="3" fill="#fff"/><use xlink:href="#a" transform="matrix(1,0,0,1,625,445) translate(29.228395061728392 39.65277777777778)"/><use xlink:href="#e" transform="matrix(1,0,0,1,625,445) translate(88.42592592592592 39.65277777777778)"/><path d="M562.5 480H600" stroke="#5e5e5e" stroke-width="2" fill="none"/><path d="M562.53 481h-1.03v-2h1.03z" fill="#5e5e5e"/><path d="M615.26 480L601 484.64v-9.28z" stroke="#5e5e5e" stroke-width="2" fill="#5e5e5e"/><path d="M820 446c0-3.3 2.7-6 6-6h128c3.3 0 6 2.7 6 6v68c0 3.3-2.7 6-6 6H826c-3.3 0-6-2.7-6-6z" stroke="#5e5e5e" stroke-width="3" fill="#fff"/><use xlink:href="#a" transform="matrix(1,0,0,1,825,445) translate(29.228395061728392 39.65277777777778)"/><use xlink:href="#e" transform="matrix(1,0,0,1,825,445) translate(88.42592592592592 39.65277777777778)"/><path d="M762.5 480H800" stroke="#5e5e5e" stroke-width="2" fill="none"/><path d="M762.53 481h-1.03v-2h1.03z" fill="#5e5e5e"/><path d="M815.26 480L801 484.64v-9.28z" stroke="#5e5e5e" stroke-width="2" fill="#5e5e5e"/><path d="M1149.96 345.83v.05l-.06.52-.07.5-.1.53-.12.5-.14.53-.17.52-.2.54-.23.54-.26.55-.3.57-.33.6-.38.6-.45.62-.5.64-.56.68-.66.72-.74.77-.87.82-1 .87-1.2.93-1.4 1-1.67 1.13-2.04 1.23-2.5 1.36-3.13 1.55-4.02 1.8-5.27 2.07-7.2 2.5-10.38 3.12-16.53 4.2-34.97 7.3-100.02 19.23-16.52 4.2-10.4 3.13-7.2 2.5-5.26 2.08-4 1.78-3.14 1.55-2.5 1.38-2.04 1.23-1.5 1" stroke="#5e5e5e" stroke-width="2" fill="none"/><path d="M1150.98 345.88l-2-.04.02-1h2z" fill="#5e5e5e"/><path d="M891.8 435.82l4.15-14.42 7.68 5.2z" stroke="#5e5e5e" stroke-width="2" fill="#5e5e5e"/><path d="M1020 446c0-3.3 2.7-6 6-6h128c3.3 0 6 2.7 6 6v68c0 3.3-2.7 6-6 6h-128c-3.3 0-6-2.7-6-6z" stroke="#5e5e5e" stroke-width="3" fill="#fff"/><use xlink:href="#f" transform="matrix(1,0,0,1,1025,445) translate(47.77777777777778 39.65277777777778)"/><path d="M962.5 480h37.5" stroke="#5e5e5e" stroke-width="2" fill="none"/><path d="M962.53 481h-1.03v-2h1.03z" fill="#5e5e5e"/><path d="M1015.26 480l-14.26 4.64v-9.28z" stroke="#5e5e5e" stroke-width="2" fill="#5e5e5e"/><defs><path fill="#333" d="M190 0L58-211 59 0H30v-248h39L202-35l-2-213h31V0h-41" id="g"/><path fill="#333" d="M100-194c62-1 85 37 85 99 1 63-27 99-86 99S16-35 15-95c0-66 28-99 85-99zM99-20c44 1 53-31 53-75 0-43-8-75-51-75s-53 32-53 75 10 74 51 75" id="h"/><path fill="#333" d="M85-194c31 0 48 13 60 33l-1-100h32l1 261h-30c-2-10 0-23-3-31C134-8 116 4 85 4 32 4 16-35 15-94c0-66 23-100 70-100zm9 24c-40 0-46 34-46 75 0 40 6 74 45 74 42 0 51-32 51-76 0-42-9-74-50-73" id="i"/><path fill="#333" d="M100-194c63 0 86 42 84 106H49c0 40 14 67 53 68 26 1 43-12 49-29l28 8c-11 28-37 45-77 45C44 4 14-33 15-96c1-61 26-98 85-98zm52 81c6-60-76-77-97-28-3 7-6 17-6 28h103" id="j"/><g id="a"><use transform="matrix(0.06172839506172839,0,0,0.06172839506172839,0,0)" xlink:href="#g"/><use transform="matrix(0.06172839506172839,0,0,0.06172839506172839,15.987654320987653,0)" xlink:href="#h"/><use transform="matrix(0.06172839506172839,0,0,0.06172839506172839,28.333333333333332,0)" xlink:href="#i"/><use transform="matrix(0.06172839506172839,0,0,0.06172839506172839,40.67901234567901,0)" xlink:href="#j"/></g><path fill="#333" d="M27 0v-27h64v-190l-56 39v-29l58-41h29v221h61V0H27" id="k"/><use transform="matrix(0.06172839506172839,0,0,0.06172839506172839,0,0)" xlink:href="#k" id="b"/><path fill="#333" d="M101-234c-31-9-42 10-38 44h38v23H63V0H32v-167H5v-23h27c-7-52 17-82 69-68v24" id="l"/><path fill="#333" d="M114-163C36-179 61-72 57 0H25l-1-190h30c1 12-1 29 2 39 6-27 23-49 58-41v29" id="m"/><path fill="#333" d="M117-194c89-4 53 116 60 194h-32v-121c0-31-8-49-39-48C34-167 62-67 57 0H25l-1-190h30c1 10-1 24 2 32 11-22 29-35 61-36" id="n"/><path fill="#333" d="M59-47c-2 24 18 29 38 22v24C64 9 27 4 27-40v-127H5v-23h24l9-43h21v43h35v23H59v120" id="o"/><g id="c"><use transform="matrix(0.06172839506172839,0,0,0.06172839506172839,0,0)" xlink:href="#l"/><use transform="matrix(0.06172839506172839,0,0,0.06172839506172839,6.172839506172839,0)" xlink:href="#m"/><use transform="matrix(0.06172839506172839,0,0,0.06172839506172839,13.518518518518519,0)" xlink:href="#h"/><use transform="matrix(0.06172839506172839,0,0,0.06172839506172839,25.864197530864196,0)" xlink:href="#n"/><use transform="matrix(0.06172839506172839,0,0,0.06172839506172839,38.20987654320987,0)" xlink:href="#o"/></g><path fill="#333" d="M141-36C126-15 110 5 73 4 37 3 15-17 15-53c-1-64 63-63 125-63 3-35-9-54-41-54-24 1-41 7-42 31l-33-3c5-37 33-52 76-52 45 0 72 20 72 64v82c-1 20 7 32 28 27v20c-31 9-61-2-59-35zM48-53c0 20 12 33 32 33 41-3 63-29 60-74-43 2-92-5-92 41" id="p"/><g id="d"><use transform="matrix(0.06172839506172839,0,0,0.06172839506172839,0,0)" xlink:href="#m"/><use transform="matrix(0.06172839506172839,0,0,0.06172839506172839,7.345679012345679,0)" xlink:href="#j"/><use transform="matrix(0.06172839506172839,0,0,0.06172839506172839,19.691358024691358,0)" xlink:href="#p"/><use transform="matrix(0.06172839506172839,0,0,0.06172839506172839,32.03703703703704,0)" xlink:href="#m"/></g><path fill="#333" d="M101-251c82-7 93 87 43 132L82-64C71-53 59-42 53-27h129V0H18c2-99 128-94 128-182 0-28-16-43-45-43s-46 15-49 41l-32-3c6-41 34-60 81-64" id="q"/><use transform="matrix(0.06172839506172839,0,0,0.06172839506172839,0,0)" xlink:href="#q" id="e"/><path fill="#333" d="M84 4C-5 8 30-112 23-190h32v120c0 31 7 50 39 49 72-2 45-101 50-169h31l1 190h-30c-1-10 1-25-2-33-11 22-28 36-60 37" id="r"/><path fill="#333" d="M24 0v-261h32V0H24" id="s"/><g id="f"><use transform="matrix(0.06172839506172839,0,0,0.06172839506172839,0,0)" xlink:href="#n"/><use transform="matrix(0.06172839506172839,0,0,0.06172839506172839,12.345679012345679,0)" xlink:href="#r"/><use transform="matrix(0.06172839506172839,0,0,0.06172839506172839,24.691358024691358,0)" xlink:href="#s"/><use transform="matrix(0.06172839506172839,0,0,0.06172839506172839,29.5679012345679,0)" xlink:href="#s"/></g></defs></g></svg>